%FSLAX45Y45*%
G04 Gerber Fmt 4.5, Leading zero omitted, Abs format (unit mm)*
G04 Created by KiCad (PCBNEW (6.0.4)) date 2022-04-01 13:14:08*
%MOMM*%
%LPD*%
G01*
G04 APERTURE LIST*
%TA.AperFunction,Profile*%
%ADD10C,0.100000*%
%TD*%
%TA.AperFunction,Profile*%
%ADD11C,0.050000*%
%TD*%
%ADD12C,0.200000*%
%ADD13C,0.250000*%
G04 APERTURE END LIST*
D10*
X15059520Y-5146040D02*
X15059520Y-2146040D01*
D11*
X15362634Y-2145238D02*
G75*
G03*
X15061299Y-2439810I-21644J-279272D01*
G01*
D10*
X21559520Y-5146040D02*
X15059520Y-5146040D01*
X21559520Y-5146040D02*
X15059520Y-5146040D01*
X15059520Y-2146040D02*
X21559520Y-2146040D01*
D11*
X15059520Y-2146040D02*
X21559520Y-2146040D01*
X21559520Y-2146040D02*
X21559520Y-5146040D01*
X21559520Y-5146040D02*
X15059520Y-5146040D01*
X15059520Y-5146040D02*
X15059520Y-2146040D01*
D10*
X21559520Y-2146040D02*
X21559520Y-5146040D01*
X21559520Y-2146040D02*
X21559520Y-5146040D01*
X15059520Y-5146040D02*
X15059520Y-2146040D01*
X15059520Y-2146040D02*
X21559520Y-2146040D01*
D12*
D13*
X15284520Y-2371040D02*
X15534520Y-2621040D01*
X15534520Y-2371040D02*
X15284520Y-2621040D01*
X15284520Y-4671040D02*
X15534520Y-4921040D01*
X15534520Y-4671040D02*
X15284520Y-4921040D01*
X21084520Y-2371040D02*
X21334520Y-2621040D01*
X21334520Y-2371040D02*
X21084520Y-2621040D01*
X21084520Y-4671040D02*
X21334520Y-4921040D01*
X21334520Y-4671040D02*
X21084520Y-4921040D01*
D12*
X15312139Y-5461516D02*
X15312139Y-5261516D01*
X15359758Y-5261516D01*
X15388329Y-5271040D01*
X15407377Y-5290088D01*
X15416901Y-5309135D01*
X15426425Y-5347230D01*
X15426425Y-5375802D01*
X15416901Y-5413897D01*
X15407377Y-5432945D01*
X15388329Y-5451992D01*
X15359758Y-5461516D01*
X15312139Y-5461516D01*
X15512139Y-5461516D02*
X15512139Y-5328183D01*
X15512139Y-5366278D02*
X15521663Y-5347230D01*
X15531187Y-5337707D01*
X15550234Y-5328183D01*
X15569282Y-5328183D01*
X15635948Y-5461516D02*
X15635948Y-5328183D01*
X15635948Y-5261516D02*
X15626425Y-5271040D01*
X15635948Y-5280564D01*
X15645472Y-5271040D01*
X15635948Y-5261516D01*
X15635948Y-5280564D01*
X15759758Y-5461516D02*
X15740710Y-5451992D01*
X15731187Y-5432945D01*
X15731187Y-5261516D01*
X15864520Y-5461516D02*
X15845472Y-5451992D01*
X15835948Y-5432945D01*
X15835948Y-5261516D01*
X16093091Y-5461516D02*
X16093091Y-5261516D01*
X16159758Y-5404373D01*
X16226425Y-5261516D01*
X16226425Y-5461516D01*
X16407377Y-5461516D02*
X16407377Y-5356754D01*
X16397853Y-5337707D01*
X16378806Y-5328183D01*
X16340710Y-5328183D01*
X16321663Y-5337707D01*
X16407377Y-5451992D02*
X16388329Y-5461516D01*
X16340710Y-5461516D01*
X16321663Y-5451992D01*
X16312139Y-5432945D01*
X16312139Y-5413897D01*
X16321663Y-5394850D01*
X16340710Y-5385326D01*
X16388329Y-5385326D01*
X16407377Y-5375802D01*
X16502615Y-5328183D02*
X16502615Y-5528183D01*
X16502615Y-5337707D02*
X16521663Y-5328183D01*
X16559758Y-5328183D01*
X16578806Y-5337707D01*
X16588329Y-5347230D01*
X16597853Y-5366278D01*
X16597853Y-5423421D01*
X16588329Y-5442469D01*
X16578806Y-5451992D01*
X16559758Y-5461516D01*
X16521663Y-5461516D01*
X16502615Y-5451992D01*
X16683568Y-5442469D02*
X16693091Y-5451992D01*
X16683568Y-5461516D01*
X16674044Y-5451992D01*
X16683568Y-5442469D01*
X16683568Y-5461516D01*
X16683568Y-5337707D02*
X16693091Y-5347230D01*
X16683568Y-5356754D01*
X16674044Y-5347230D01*
X16683568Y-5337707D01*
X16683568Y-5356754D01*
X14854520Y-5691040D02*
X15054520Y-5891040D01*
X15054520Y-5691040D02*
X14854520Y-5891040D01*
X15302615Y-5700564D02*
X15312139Y-5691040D01*
X15331187Y-5681516D01*
X15378806Y-5681516D01*
X15397853Y-5691040D01*
X15407377Y-5700564D01*
X15416901Y-5719611D01*
X15416901Y-5738659D01*
X15407377Y-5767230D01*
X15293091Y-5881516D01*
X15416901Y-5881516D01*
X15502615Y-5862468D02*
X15512139Y-5871992D01*
X15502615Y-5881516D01*
X15493091Y-5871992D01*
X15502615Y-5862468D01*
X15502615Y-5881516D01*
X15693091Y-5681516D02*
X15597853Y-5681516D01*
X15588329Y-5776754D01*
X15597853Y-5767230D01*
X15616901Y-5757707D01*
X15664520Y-5757707D01*
X15683568Y-5767230D01*
X15693091Y-5776754D01*
X15702615Y-5795802D01*
X15702615Y-5843421D01*
X15693091Y-5862468D01*
X15683568Y-5871992D01*
X15664520Y-5881516D01*
X15616901Y-5881516D01*
X15597853Y-5871992D01*
X15588329Y-5862468D01*
X15826425Y-5681516D02*
X15845472Y-5681516D01*
X15864520Y-5691040D01*
X15874044Y-5700564D01*
X15883568Y-5719611D01*
X15893091Y-5757707D01*
X15893091Y-5805326D01*
X15883568Y-5843421D01*
X15874044Y-5862468D01*
X15864520Y-5871992D01*
X15845472Y-5881516D01*
X15826425Y-5881516D01*
X15807377Y-5871992D01*
X15797853Y-5862468D01*
X15788329Y-5843421D01*
X15778806Y-5805326D01*
X15778806Y-5757707D01*
X15788329Y-5719611D01*
X15797853Y-5700564D01*
X15807377Y-5691040D01*
X15826425Y-5681516D01*
X16016901Y-5681516D02*
X16035948Y-5681516D01*
X16054996Y-5691040D01*
X16064520Y-5700564D01*
X16074044Y-5719611D01*
X16083568Y-5757707D01*
X16083568Y-5805326D01*
X16074044Y-5843421D01*
X16064520Y-5862468D01*
X16054996Y-5871992D01*
X16035948Y-5881516D01*
X16016901Y-5881516D01*
X15997853Y-5871992D01*
X15988329Y-5862468D01*
X15978806Y-5843421D01*
X15969282Y-5805326D01*
X15969282Y-5757707D01*
X15978806Y-5719611D01*
X15988329Y-5700564D01*
X15997853Y-5691040D01*
X16016901Y-5681516D01*
X16169282Y-5881516D02*
X16169282Y-5748183D01*
X16169282Y-5767230D02*
X16178806Y-5757707D01*
X16197853Y-5748183D01*
X16226425Y-5748183D01*
X16245472Y-5757707D01*
X16254996Y-5776754D01*
X16254996Y-5881516D01*
X16254996Y-5776754D02*
X16264520Y-5757707D01*
X16283568Y-5748183D01*
X16312139Y-5748183D01*
X16331187Y-5757707D01*
X16340710Y-5776754D01*
X16340710Y-5881516D01*
X16435948Y-5881516D02*
X16435948Y-5748183D01*
X16435948Y-5767230D02*
X16445472Y-5757707D01*
X16464520Y-5748183D01*
X16493091Y-5748183D01*
X16512139Y-5757707D01*
X16521663Y-5776754D01*
X16521663Y-5881516D01*
X16521663Y-5776754D02*
X16531187Y-5757707D01*
X16550234Y-5748183D01*
X16578806Y-5748183D01*
X16597853Y-5757707D01*
X16607377Y-5776754D01*
X16607377Y-5881516D01*
X16997853Y-5671992D02*
X16826425Y-5929135D01*
X17254996Y-5681516D02*
X17274044Y-5681516D01*
X17293091Y-5691040D01*
X17302615Y-5700564D01*
X17312139Y-5719611D01*
X17321663Y-5757707D01*
X17321663Y-5805326D01*
X17312139Y-5843421D01*
X17302615Y-5862468D01*
X17293091Y-5871992D01*
X17274044Y-5881516D01*
X17254996Y-5881516D01*
X17235949Y-5871992D01*
X17226425Y-5862468D01*
X17216901Y-5843421D01*
X17207377Y-5805326D01*
X17207377Y-5757707D01*
X17216901Y-5719611D01*
X17226425Y-5700564D01*
X17235949Y-5691040D01*
X17254996Y-5681516D01*
X17407377Y-5862468D02*
X17416901Y-5871992D01*
X17407377Y-5881516D01*
X17397853Y-5871992D01*
X17407377Y-5862468D01*
X17407377Y-5881516D01*
X17540710Y-5681516D02*
X17559758Y-5681516D01*
X17578806Y-5691040D01*
X17588330Y-5700564D01*
X17597853Y-5719611D01*
X17607377Y-5757707D01*
X17607377Y-5805326D01*
X17597853Y-5843421D01*
X17588330Y-5862468D01*
X17578806Y-5871992D01*
X17559758Y-5881516D01*
X17540710Y-5881516D01*
X17521663Y-5871992D01*
X17512139Y-5862468D01*
X17502615Y-5843421D01*
X17493091Y-5805326D01*
X17493091Y-5757707D01*
X17502615Y-5719611D01*
X17512139Y-5700564D01*
X17521663Y-5691040D01*
X17540710Y-5681516D01*
X17702615Y-5881516D02*
X17740710Y-5881516D01*
X17759758Y-5871992D01*
X17769282Y-5862468D01*
X17788330Y-5833897D01*
X17797853Y-5795802D01*
X17797853Y-5719611D01*
X17788330Y-5700564D01*
X17778806Y-5691040D01*
X17759758Y-5681516D01*
X17721663Y-5681516D01*
X17702615Y-5691040D01*
X17693091Y-5700564D01*
X17683568Y-5719611D01*
X17683568Y-5767230D01*
X17693091Y-5786278D01*
X17702615Y-5795802D01*
X17721663Y-5805326D01*
X17759758Y-5805326D01*
X17778806Y-5795802D01*
X17788330Y-5786278D01*
X17797853Y-5767230D01*
X17912139Y-5767230D02*
X17893091Y-5757707D01*
X17883568Y-5748183D01*
X17874044Y-5729135D01*
X17874044Y-5719611D01*
X17883568Y-5700564D01*
X17893091Y-5691040D01*
X17912139Y-5681516D01*
X17950234Y-5681516D01*
X17969282Y-5691040D01*
X17978806Y-5700564D01*
X17988330Y-5719611D01*
X17988330Y-5729135D01*
X17978806Y-5748183D01*
X17969282Y-5757707D01*
X17950234Y-5767230D01*
X17912139Y-5767230D01*
X17893091Y-5776754D01*
X17883568Y-5786278D01*
X17874044Y-5805326D01*
X17874044Y-5843421D01*
X17883568Y-5862468D01*
X17893091Y-5871992D01*
X17912139Y-5881516D01*
X17950234Y-5881516D01*
X17969282Y-5871992D01*
X17978806Y-5862468D01*
X17988330Y-5843421D01*
X17988330Y-5805326D01*
X17978806Y-5786278D01*
X17969282Y-5776754D01*
X17950234Y-5767230D01*
X18159758Y-5748183D02*
X18159758Y-5881516D01*
X18112139Y-5671992D02*
X18064520Y-5814849D01*
X18188330Y-5814849D01*
X18254996Y-5681516D02*
X18254996Y-5719611D01*
X18331187Y-5681516D02*
X18331187Y-5719611D01*
X18626425Y-5957707D02*
X18616901Y-5948183D01*
X18597853Y-5919611D01*
X18588330Y-5900564D01*
X18578806Y-5871992D01*
X18569282Y-5824373D01*
X18569282Y-5786278D01*
X18578806Y-5738659D01*
X18588330Y-5710088D01*
X18597853Y-5691040D01*
X18616901Y-5662468D01*
X18626425Y-5652945D01*
X18788330Y-5748183D02*
X18788330Y-5881516D01*
X18740710Y-5671992D02*
X18693091Y-5814849D01*
X18816901Y-5814849D01*
X19045472Y-5881516D02*
X19045472Y-5681516D01*
X19131187Y-5881516D02*
X19131187Y-5776754D01*
X19121663Y-5757707D01*
X19102615Y-5748183D01*
X19074044Y-5748183D01*
X19054996Y-5757707D01*
X19045472Y-5767230D01*
X19254996Y-5881516D02*
X19235949Y-5871992D01*
X19226425Y-5862468D01*
X19216901Y-5843421D01*
X19216901Y-5786278D01*
X19226425Y-5767230D01*
X19235949Y-5757707D01*
X19254996Y-5748183D01*
X19283568Y-5748183D01*
X19302615Y-5757707D01*
X19312139Y-5767230D01*
X19321663Y-5786278D01*
X19321663Y-5843421D01*
X19312139Y-5862468D01*
X19302615Y-5871992D01*
X19283568Y-5881516D01*
X19254996Y-5881516D01*
X19435949Y-5881516D02*
X19416901Y-5871992D01*
X19407377Y-5852945D01*
X19407377Y-5681516D01*
X19588330Y-5871992D02*
X19569282Y-5881516D01*
X19531187Y-5881516D01*
X19512139Y-5871992D01*
X19502615Y-5852945D01*
X19502615Y-5776754D01*
X19512139Y-5757707D01*
X19531187Y-5748183D01*
X19569282Y-5748183D01*
X19588330Y-5757707D01*
X19597853Y-5776754D01*
X19597853Y-5795802D01*
X19502615Y-5814849D01*
X19674044Y-5871992D02*
X19693091Y-5881516D01*
X19731187Y-5881516D01*
X19750234Y-5871992D01*
X19759758Y-5852945D01*
X19759758Y-5843421D01*
X19750234Y-5824373D01*
X19731187Y-5814849D01*
X19702615Y-5814849D01*
X19683568Y-5805326D01*
X19674044Y-5786278D01*
X19674044Y-5776754D01*
X19683568Y-5757707D01*
X19702615Y-5748183D01*
X19731187Y-5748183D01*
X19750234Y-5757707D01*
X19826425Y-5957707D02*
X19835949Y-5948183D01*
X19854996Y-5919611D01*
X19864520Y-5900564D01*
X19874044Y-5871992D01*
X19883568Y-5824373D01*
X19883568Y-5786278D01*
X19874044Y-5738659D01*
X19864520Y-5710088D01*
X19854996Y-5691040D01*
X19835949Y-5662468D01*
X19826425Y-5652945D01*
X20188330Y-5957707D02*
X20178806Y-5948183D01*
X20159758Y-5919611D01*
X20150234Y-5900564D01*
X20140710Y-5871992D01*
X20131187Y-5824373D01*
X20131187Y-5786278D01*
X20140710Y-5738659D01*
X20150234Y-5710088D01*
X20159758Y-5691040D01*
X20178806Y-5662468D01*
X20188330Y-5652945D01*
X20264520Y-5748183D02*
X20264520Y-5881516D01*
X20264520Y-5767230D02*
X20274044Y-5757707D01*
X20293091Y-5748183D01*
X20321663Y-5748183D01*
X20340710Y-5757707D01*
X20350234Y-5776754D01*
X20350234Y-5881516D01*
X20474044Y-5881516D02*
X20454996Y-5871992D01*
X20445472Y-5862468D01*
X20435949Y-5843421D01*
X20435949Y-5786278D01*
X20445472Y-5767230D01*
X20454996Y-5757707D01*
X20474044Y-5748183D01*
X20502615Y-5748183D01*
X20521663Y-5757707D01*
X20531187Y-5767230D01*
X20540710Y-5786278D01*
X20540710Y-5843421D01*
X20531187Y-5862468D01*
X20521663Y-5871992D01*
X20502615Y-5881516D01*
X20474044Y-5881516D01*
X20597853Y-5748183D02*
X20674044Y-5748183D01*
X20626425Y-5681516D02*
X20626425Y-5852945D01*
X20635949Y-5871992D01*
X20654996Y-5881516D01*
X20674044Y-5881516D01*
X20893091Y-5748183D02*
X20893091Y-5948183D01*
X20893091Y-5757707D02*
X20912139Y-5748183D01*
X20950234Y-5748183D01*
X20969282Y-5757707D01*
X20978806Y-5767230D01*
X20988330Y-5786278D01*
X20988330Y-5843421D01*
X20978806Y-5862468D01*
X20969282Y-5871992D01*
X20950234Y-5881516D01*
X20912139Y-5881516D01*
X20893091Y-5871992D01*
X21102615Y-5881516D02*
X21083568Y-5871992D01*
X21074044Y-5852945D01*
X21074044Y-5681516D01*
X21264520Y-5881516D02*
X21264520Y-5776754D01*
X21254996Y-5757707D01*
X21235949Y-5748183D01*
X21197853Y-5748183D01*
X21178806Y-5757707D01*
X21264520Y-5871992D02*
X21245472Y-5881516D01*
X21197853Y-5881516D01*
X21178806Y-5871992D01*
X21169282Y-5852945D01*
X21169282Y-5833897D01*
X21178806Y-5814849D01*
X21197853Y-5805326D01*
X21245472Y-5805326D01*
X21264520Y-5795802D01*
X21331187Y-5748183D02*
X21407377Y-5748183D01*
X21359758Y-5681516D02*
X21359758Y-5852945D01*
X21369282Y-5871992D01*
X21388330Y-5881516D01*
X21407377Y-5881516D01*
X21550234Y-5871992D02*
X21531187Y-5881516D01*
X21493091Y-5881516D01*
X21474044Y-5871992D01*
X21464520Y-5852945D01*
X21464520Y-5776754D01*
X21474044Y-5757707D01*
X21493091Y-5748183D01*
X21531187Y-5748183D01*
X21550234Y-5757707D01*
X21559758Y-5776754D01*
X21559758Y-5795802D01*
X21464520Y-5814849D01*
X21731187Y-5881516D02*
X21731187Y-5681516D01*
X21731187Y-5871992D02*
X21712139Y-5881516D01*
X21674044Y-5881516D01*
X21654996Y-5871992D01*
X21645472Y-5862468D01*
X21635949Y-5843421D01*
X21635949Y-5786278D01*
X21645472Y-5767230D01*
X21654996Y-5757707D01*
X21674044Y-5748183D01*
X21712139Y-5748183D01*
X21731187Y-5757707D01*
X21807377Y-5957707D02*
X21816901Y-5948183D01*
X21835949Y-5919611D01*
X21845472Y-5900564D01*
X21854996Y-5871992D01*
X21864520Y-5824373D01*
X21864520Y-5786278D01*
X21854996Y-5738659D01*
X21845472Y-5710088D01*
X21835949Y-5691040D01*
X21816901Y-5662468D01*
X21807377Y-5652945D01*
M02*
