%TF.GenerationSoftware,KiCad,Pcbnew,(6.0.4)*%
%TF.CreationDate,2022-04-01T13:13:12+01:00*%
%TF.ProjectId,Basic_2ch_Hat,42617369-635f-4326-9368-5f4861742e6b,rev?*%
%TF.SameCoordinates,Original*%
%TF.FileFunction,Soldermask,Bot*%
%TF.FilePolarity,Negative*%
%FSLAX46Y46*%
G04 Gerber Fmt 4.6, Leading zero omitted, Abs format (unit mm)*
G04 Created by KiCad (PCBNEW (6.0.4)) date 2022-04-01 13:13:12*
%MOMM*%
%LPD*%
G01*
G04 APERTURE LIST*
G04 Aperture macros list*
%AMRoundRect*
0 Rectangle with rounded corners*
0 $1 Rounding radius*
0 $2 $3 $4 $5 $6 $7 $8 $9 X,Y pos of 4 corners*
0 Add a 4 corners polygon primitive as box body*
4,1,4,$2,$3,$4,$5,$6,$7,$8,$9,$2,$3,0*
0 Add four circle primitives for the rounded corners*
1,1,$1+$1,$2,$3*
1,1,$1+$1,$4,$5*
1,1,$1+$1,$6,$7*
1,1,$1+$1,$8,$9*
0 Add four rect primitives between the rounded corners*
20,1,$1+$1,$2,$3,$4,$5,0*
20,1,$1+$1,$4,$5,$6,$7,0*
20,1,$1+$1,$6,$7,$8,$9,0*
20,1,$1+$1,$8,$9,$2,$3,0*%
G04 Aperture macros list end*
%ADD10RoundRect,0.250000X1.550000X-0.650000X1.550000X0.650000X-1.550000X0.650000X-1.550000X-0.650000X0*%
%ADD11O,3.600000X1.800000*%
%ADD12R,1.130000X1.130000*%
%ADD13C,1.130000*%
%ADD14R,3.200000X3.200000*%
%ADD15O,3.200000X3.200000*%
%ADD16R,2.600000X2.600000*%
%ADD17C,2.600000*%
%ADD18R,1.700000X1.700000*%
%ADD19O,1.700000X1.700000*%
%ADD20C,2.500000*%
%ADD21C,2.780000*%
%ADD22R,1.524000X1.524000*%
G04 APERTURE END LIST*
D10*
%TO.C,J2*%
X167156000Y-39624000D03*
D11*
X167156000Y-36124000D03*
X167156000Y-32624000D03*
%TD*%
D10*
%TO.C,J1*%
X156825700Y-39601300D03*
D11*
X156825700Y-36101300D03*
X156825700Y-32601300D03*
%TD*%
D12*
%TO.C,IC1*%
X190703200Y-41750000D03*
D13*
X188163200Y-41750000D03*
X185623200Y-41750000D03*
X183083200Y-41750000D03*
X180543200Y-41750000D03*
X178003200Y-41750000D03*
X175463200Y-41750000D03*
X175463200Y-49690000D03*
X178003200Y-49690000D03*
X180543200Y-49690000D03*
X183083200Y-49690000D03*
X185623200Y-49690000D03*
X188163200Y-49690000D03*
X190703200Y-49690000D03*
%TD*%
D14*
%TO.C,D20*%
X192735200Y-37185600D03*
D15*
X205435200Y-37185600D03*
%TD*%
D16*
%TO.C,J23*%
X198922000Y-46228200D03*
D17*
X203922000Y-46228200D03*
%TD*%
D18*
%TO.C,JP1*%
X192902600Y-31140400D03*
D19*
X195442600Y-31140400D03*
X197982600Y-31140400D03*
%TD*%
D20*
%TO.C,H4*%
X212095200Y-47960400D03*
%TD*%
%TO.C,H2*%
X212095200Y-24960400D03*
%TD*%
%TO.C,H1*%
X154095200Y-24960400D03*
%TD*%
D21*
%TO.C,F18*%
X213356800Y-41739200D03*
X209956800Y-41739200D03*
X209956800Y-31819200D03*
X213356800Y-31819200D03*
%TD*%
D22*
%TO.C,U2*%
X174294800Y-32156400D03*
X174294800Y-34696400D03*
X174294800Y-37236400D03*
%TD*%
D20*
%TO.C,H3*%
X154095200Y-47960400D03*
%TD*%
D18*
%TO.C,J4*%
X174294800Y-37221400D03*
D19*
X174294800Y-34681400D03*
X174294800Y-32141400D03*
%TD*%
D18*
%TO.C,J3*%
X159312000Y-26314400D03*
D19*
X159312000Y-23774400D03*
X161852000Y-26314400D03*
X161852000Y-23774400D03*
X164392000Y-26314400D03*
X164392000Y-23774400D03*
X166932000Y-26314400D03*
X166932000Y-23774400D03*
X169472000Y-26314400D03*
X169472000Y-23774400D03*
X172012000Y-26314400D03*
X172012000Y-23774400D03*
X174552000Y-26314400D03*
X174552000Y-23774400D03*
X177092000Y-26314400D03*
X177092000Y-23774400D03*
X179632000Y-26314400D03*
X179632000Y-23774400D03*
X182172000Y-26314400D03*
X182172000Y-23774400D03*
X184712000Y-26314400D03*
X184712000Y-23774400D03*
X187252000Y-26314400D03*
X187252000Y-23774400D03*
X189792000Y-26314400D03*
X189792000Y-23774400D03*
X192332000Y-26314400D03*
X192332000Y-23774400D03*
X194872000Y-26314400D03*
X194872000Y-23774400D03*
X197412000Y-26314400D03*
X197412000Y-23774400D03*
X199952000Y-26314400D03*
X199952000Y-23774400D03*
X202492000Y-26314400D03*
X202492000Y-23774400D03*
X205032000Y-26314400D03*
X205032000Y-23774400D03*
X207572000Y-26314400D03*
X207572000Y-23774400D03*
%TD*%
M02*
