%TF.GenerationSoftware,KiCad,Pcbnew,(6.0.4)*%
%TF.CreationDate,2022-04-01T13:13:12+01:00*%
%TF.ProjectId,Basic_2ch_Hat,42617369-635f-4326-9368-5f4861742e6b,rev?*%
%TF.SameCoordinates,Original*%
%TF.FileFunction,Legend,Top*%
%TF.FilePolarity,Positive*%
%FSLAX46Y46*%
G04 Gerber Fmt 4.6, Leading zero omitted, Abs format (unit mm)*
G04 Created by KiCad (PCBNEW (6.0.4)) date 2022-04-01 13:13:12*
%MOMM*%
%LPD*%
G01*
G04 APERTURE LIST*
G04 Aperture macros list*
%AMRoundRect*
0 Rectangle with rounded corners*
0 $1 Rounding radius*
0 $2 $3 $4 $5 $6 $7 $8 $9 X,Y pos of 4 corners*
0 Add a 4 corners polygon primitive as box body*
4,1,4,$2,$3,$4,$5,$6,$7,$8,$9,$2,$3,0*
0 Add four circle primitives for the rounded corners*
1,1,$1+$1,$2,$3*
1,1,$1+$1,$4,$5*
1,1,$1+$1,$6,$7*
1,1,$1+$1,$8,$9*
0 Add four rect primitives between the rounded corners*
20,1,$1+$1,$2,$3,$4,$5,0*
20,1,$1+$1,$4,$5,$6,$7,0*
20,1,$1+$1,$6,$7,$8,$9,0*
20,1,$1+$1,$8,$9,$2,$3,0*%
G04 Aperture macros list end*
%ADD10C,0.150000*%
%ADD11C,0.254000*%
%ADD12C,0.120000*%
%ADD13C,0.200000*%
%ADD14RoundRect,0.250000X1.550000X-0.650000X1.550000X0.650000X-1.550000X0.650000X-1.550000X-0.650000X0*%
%ADD15O,3.600000X1.800000*%
%ADD16R,1.130000X1.130000*%
%ADD17C,1.130000*%
%ADD18R,3.200000X3.200000*%
%ADD19O,3.200000X3.200000*%
%ADD20R,2.600000X2.600000*%
%ADD21C,2.600000*%
%ADD22R,1.700000X1.700000*%
%ADD23O,1.700000X1.700000*%
%ADD24C,2.500000*%
%ADD25RoundRect,0.250000X-0.262500X-0.450000X0.262500X-0.450000X0.262500X0.450000X-0.262500X0.450000X0*%
%ADD26C,2.780000*%
%ADD27R,1.524000X1.524000*%
%ADD28RoundRect,0.250000X-1.050000X-0.550000X1.050000X-0.550000X1.050000X0.550000X-1.050000X0.550000X0*%
G04 APERTURE END LIST*
D10*
%TO.C,J2*%
X161158380Y-36457333D02*
X161872666Y-36457333D01*
X162015523Y-36504952D01*
X162110761Y-36600190D01*
X162158380Y-36743047D01*
X162158380Y-36838285D01*
X161253619Y-36028761D02*
X161206000Y-35981142D01*
X161158380Y-35885904D01*
X161158380Y-35647809D01*
X161206000Y-35552571D01*
X161253619Y-35504952D01*
X161348857Y-35457333D01*
X161444095Y-35457333D01*
X161586952Y-35504952D01*
X162158380Y-36076380D01*
X162158380Y-35457333D01*
%TO.C,J1*%
X150828080Y-36434633D02*
X151542366Y-36434633D01*
X151685223Y-36482252D01*
X151780461Y-36577490D01*
X151828080Y-36720347D01*
X151828080Y-36815585D01*
X151828080Y-35434633D02*
X151828080Y-36006061D01*
X151828080Y-35720347D02*
X150828080Y-35720347D01*
X150970938Y-35815585D01*
X151066176Y-35910823D01*
X151113795Y-36006061D01*
D11*
%TO.C,IC1*%
X183657723Y-46959761D02*
X182387723Y-46959761D01*
X183536771Y-45629285D02*
X183597247Y-45689761D01*
X183657723Y-45871190D01*
X183657723Y-45992142D01*
X183597247Y-46173571D01*
X183476295Y-46294523D01*
X183355342Y-46355000D01*
X183113438Y-46415476D01*
X182932009Y-46415476D01*
X182690104Y-46355000D01*
X182569152Y-46294523D01*
X182448200Y-46173571D01*
X182387723Y-45992142D01*
X182387723Y-45871190D01*
X182448200Y-45689761D01*
X182508676Y-45629285D01*
X183657723Y-44419761D02*
X183657723Y-45145476D01*
X183657723Y-44782619D02*
X182387723Y-44782619D01*
X182569152Y-44903571D01*
X182690104Y-45024523D01*
X182750580Y-45145476D01*
D10*
%TO.C,D20*%
X198785314Y-37383980D02*
X198785314Y-36383980D01*
X199023409Y-36383980D01*
X199166266Y-36431600D01*
X199261504Y-36526838D01*
X199309123Y-36622076D01*
X199356742Y-36812552D01*
X199356742Y-36955409D01*
X199309123Y-37145885D01*
X199261504Y-37241123D01*
X199166266Y-37336361D01*
X199023409Y-37383980D01*
X198785314Y-37383980D01*
X199737695Y-36479219D02*
X199785314Y-36431600D01*
X199880552Y-36383980D01*
X200118647Y-36383980D01*
X200213885Y-36431600D01*
X200261504Y-36479219D01*
X200309123Y-36574457D01*
X200309123Y-36669695D01*
X200261504Y-36812552D01*
X199690076Y-37383980D01*
X200309123Y-37383980D01*
X200928171Y-36383980D02*
X201023409Y-36383980D01*
X201118647Y-36431600D01*
X201166266Y-36479219D01*
X201213885Y-36574457D01*
X201261504Y-36764933D01*
X201261504Y-37003028D01*
X201213885Y-37193504D01*
X201166266Y-37288742D01*
X201118647Y-37336361D01*
X201023409Y-37383980D01*
X200928171Y-37383980D01*
X200832933Y-37336361D01*
X200785314Y-37288742D01*
X200737695Y-37193504D01*
X200690076Y-37003028D01*
X200690076Y-36764933D01*
X200737695Y-36574457D01*
X200785314Y-36479219D01*
X200832933Y-36431600D01*
X200928171Y-36383980D01*
X192473295Y-35037980D02*
X192473295Y-34037980D01*
X193044723Y-35037980D02*
X192616152Y-34466552D01*
X193044723Y-34037980D02*
X192473295Y-34609409D01*
%TO.C,J23*%
X200612476Y-39420580D02*
X200612476Y-40134866D01*
X200564857Y-40277723D01*
X200469619Y-40372961D01*
X200326761Y-40420580D01*
X200231523Y-40420580D01*
X201041047Y-39515819D02*
X201088666Y-39468200D01*
X201183904Y-39420580D01*
X201422000Y-39420580D01*
X201517238Y-39468200D01*
X201564857Y-39515819D01*
X201612476Y-39611057D01*
X201612476Y-39706295D01*
X201564857Y-39849152D01*
X200993428Y-40420580D01*
X201612476Y-40420580D01*
X201945809Y-39420580D02*
X202564857Y-39420580D01*
X202231523Y-39801533D01*
X202374380Y-39801533D01*
X202469619Y-39849152D01*
X202517238Y-39896771D01*
X202564857Y-39992009D01*
X202564857Y-40230104D01*
X202517238Y-40325342D01*
X202469619Y-40372961D01*
X202374380Y-40420580D01*
X202088666Y-40420580D01*
X201993428Y-40372961D01*
X201945809Y-40325342D01*
%TO.C,JP1*%
X190024980Y-31973733D02*
X190739266Y-31973733D01*
X190882123Y-32021352D01*
X190977361Y-32116590D01*
X191024980Y-32259447D01*
X191024980Y-32354685D01*
X191024980Y-31497542D02*
X190024980Y-31497542D01*
X190024980Y-31116590D01*
X190072600Y-31021352D01*
X190120219Y-30973733D01*
X190215457Y-30926114D01*
X190358314Y-30926114D01*
X190453552Y-30973733D01*
X190501171Y-31021352D01*
X190548790Y-31116590D01*
X190548790Y-31497542D01*
X191024980Y-29973733D02*
X191024980Y-30545161D01*
X191024980Y-30259447D02*
X190024980Y-30259447D01*
X190167838Y-30354685D01*
X190263076Y-30449923D01*
X190310695Y-30545161D01*
%TO.C,R18*%
X158769442Y-44674780D02*
X158436109Y-44198590D01*
X158198014Y-44674780D02*
X158198014Y-43674780D01*
X158578966Y-43674780D01*
X158674204Y-43722400D01*
X158721823Y-43770019D01*
X158769442Y-43865257D01*
X158769442Y-44008114D01*
X158721823Y-44103352D01*
X158674204Y-44150971D01*
X158578966Y-44198590D01*
X158198014Y-44198590D01*
X159721823Y-44674780D02*
X159150395Y-44674780D01*
X159436109Y-44674780D02*
X159436109Y-43674780D01*
X159340871Y-43817638D01*
X159245633Y-43912876D01*
X159150395Y-43960495D01*
X160293252Y-44103352D02*
X160198014Y-44055733D01*
X160150395Y-44008114D01*
X160102776Y-43912876D01*
X160102776Y-43865257D01*
X160150395Y-43770019D01*
X160198014Y-43722400D01*
X160293252Y-43674780D01*
X160483728Y-43674780D01*
X160578966Y-43722400D01*
X160626585Y-43770019D01*
X160674204Y-43865257D01*
X160674204Y-43912876D01*
X160626585Y-44008114D01*
X160578966Y-44055733D01*
X160483728Y-44103352D01*
X160293252Y-44103352D01*
X160198014Y-44150971D01*
X160150395Y-44198590D01*
X160102776Y-44293828D01*
X160102776Y-44484304D01*
X160150395Y-44579542D01*
X160198014Y-44627161D01*
X160293252Y-44674780D01*
X160483728Y-44674780D01*
X160578966Y-44627161D01*
X160626585Y-44579542D01*
X160674204Y-44484304D01*
X160674204Y-44293828D01*
X160626585Y-44198590D01*
X160578966Y-44150971D01*
X160483728Y-44103352D01*
%TO.C,F18*%
X207215371Y-37588723D02*
X207215371Y-37922057D01*
X207739180Y-37922057D02*
X206739180Y-37922057D01*
X206739180Y-37445866D01*
X207739180Y-36541104D02*
X207739180Y-37112533D01*
X207739180Y-36826819D02*
X206739180Y-36826819D01*
X206882038Y-36922057D01*
X206977276Y-37017295D01*
X207024895Y-37112533D01*
X207167752Y-35969676D02*
X207120133Y-36064914D01*
X207072514Y-36112533D01*
X206977276Y-36160152D01*
X206929657Y-36160152D01*
X206834419Y-36112533D01*
X206786800Y-36064914D01*
X206739180Y-35969676D01*
X206739180Y-35779200D01*
X206786800Y-35683961D01*
X206834419Y-35636342D01*
X206929657Y-35588723D01*
X206977276Y-35588723D01*
X207072514Y-35636342D01*
X207120133Y-35683961D01*
X207167752Y-35779200D01*
X207167752Y-35969676D01*
X207215371Y-36064914D01*
X207262990Y-36112533D01*
X207358228Y-36160152D01*
X207548704Y-36160152D01*
X207643942Y-36112533D01*
X207691561Y-36064914D01*
X207739180Y-35969676D01*
X207739180Y-35779200D01*
X207691561Y-35683961D01*
X207643942Y-35636342D01*
X207548704Y-35588723D01*
X207358228Y-35588723D01*
X207262990Y-35636342D01*
X207215371Y-35683961D01*
X207167752Y-35779200D01*
%TO.C,U2*%
X181762495Y-34250380D02*
X181762495Y-35059904D01*
X181810114Y-35155142D01*
X181857733Y-35202761D01*
X181952971Y-35250380D01*
X182143447Y-35250380D01*
X182238685Y-35202761D01*
X182286304Y-35155142D01*
X182333923Y-35059904D01*
X182333923Y-34250380D01*
X182762495Y-34345619D02*
X182810114Y-34298000D01*
X182905352Y-34250380D01*
X183143447Y-34250380D01*
X183238685Y-34298000D01*
X183286304Y-34345619D01*
X183333923Y-34440857D01*
X183333923Y-34536095D01*
X183286304Y-34678952D01*
X182714876Y-35250380D01*
X183333923Y-35250380D01*
%TO.C,C1*%
X204862133Y-30481942D02*
X204814514Y-30529561D01*
X204671657Y-30577180D01*
X204576419Y-30577180D01*
X204433561Y-30529561D01*
X204338323Y-30434323D01*
X204290704Y-30339085D01*
X204243085Y-30148609D01*
X204243085Y-30005752D01*
X204290704Y-29815276D01*
X204338323Y-29720038D01*
X204433561Y-29624800D01*
X204576419Y-29577180D01*
X204671657Y-29577180D01*
X204814514Y-29624800D01*
X204862133Y-29672419D01*
X205814514Y-30577180D02*
X205243085Y-30577180D01*
X205528800Y-30577180D02*
X205528800Y-29577180D01*
X205433561Y-29720038D01*
X205338323Y-29815276D01*
X205243085Y-29862895D01*
%TO.C,J4*%
X176653866Y-34199580D02*
X176653866Y-34913866D01*
X176606247Y-35056723D01*
X176511009Y-35151961D01*
X176368152Y-35199580D01*
X176272914Y-35199580D01*
X177558628Y-34532914D02*
X177558628Y-35199580D01*
X177320533Y-34151961D02*
X177082438Y-34866247D01*
X177701485Y-34866247D01*
%TO.C,R17*%
X163999942Y-44776380D02*
X163666609Y-44300190D01*
X163428514Y-44776380D02*
X163428514Y-43776380D01*
X163809466Y-43776380D01*
X163904704Y-43824000D01*
X163952323Y-43871619D01*
X163999942Y-43966857D01*
X163999942Y-44109714D01*
X163952323Y-44204952D01*
X163904704Y-44252571D01*
X163809466Y-44300190D01*
X163428514Y-44300190D01*
X164952323Y-44776380D02*
X164380895Y-44776380D01*
X164666609Y-44776380D02*
X164666609Y-43776380D01*
X164571371Y-43919238D01*
X164476133Y-44014476D01*
X164380895Y-44062095D01*
X165285657Y-43776380D02*
X165952323Y-43776380D01*
X165523752Y-44776380D01*
D12*
%TO.C,J2*%
X170266000Y-42184000D02*
X170266000Y-30064000D01*
X164756000Y-38874000D02*
X165106000Y-38874000D01*
X169406000Y-31124000D02*
X169406000Y-31874000D01*
X165106000Y-33374000D02*
X164756000Y-33374000D01*
X169406000Y-36874000D02*
X169406000Y-37624000D01*
X163756000Y-34624000D02*
X164756000Y-34874000D01*
X164756000Y-31374000D02*
X164756000Y-31874000D01*
X169406000Y-33374000D02*
X169406000Y-34124000D01*
X165106000Y-31124000D02*
X169406000Y-31124000D01*
X165106000Y-36874000D02*
X164756000Y-36874000D01*
X165106000Y-38124000D02*
X169406000Y-38124000D01*
X165106000Y-40374000D02*
X164756000Y-40374000D01*
X163756000Y-37624000D02*
X163756000Y-34624000D01*
X162406000Y-42574000D02*
X162406000Y-40574000D01*
X169406000Y-38124000D02*
X169406000Y-38874000D01*
X165106000Y-35374000D02*
X165106000Y-34624000D01*
X165106000Y-34624000D02*
X169406000Y-34624000D01*
X165106000Y-34124000D02*
X165106000Y-33374000D01*
X165106000Y-37624000D02*
X165106000Y-36874000D01*
X169406000Y-37624000D02*
X165106000Y-37624000D01*
X163756000Y-38124000D02*
X164756000Y-38374000D01*
X165106000Y-31874000D02*
X165106000Y-31124000D01*
X164756000Y-33374000D02*
X164756000Y-33874000D01*
X164756000Y-33874000D02*
X163756000Y-34124000D01*
X163756000Y-41124000D02*
X163756000Y-38124000D01*
X162796000Y-42184000D02*
X170266000Y-42184000D01*
X162796000Y-30064000D02*
X162796000Y-42184000D01*
X164756000Y-38374000D02*
X164756000Y-38874000D01*
X170266000Y-30064000D02*
X162796000Y-30064000D01*
X165106000Y-38874000D02*
X165106000Y-38124000D01*
X163756000Y-31124000D02*
X164756000Y-31374000D01*
X169406000Y-40374000D02*
X169406000Y-41124000D01*
X169406000Y-34624000D02*
X169406000Y-35374000D01*
X164756000Y-37374000D02*
X163756000Y-37624000D01*
X169406000Y-34124000D02*
X165106000Y-34124000D01*
X163756000Y-34124000D02*
X163756000Y-31124000D01*
X164756000Y-36874000D02*
X164756000Y-37374000D01*
X164756000Y-31874000D02*
X165106000Y-31874000D01*
X164756000Y-40874000D02*
X163756000Y-41124000D01*
X164756000Y-34874000D02*
X164756000Y-35374000D01*
X163656000Y-42574000D02*
X162406000Y-42574000D01*
X169406000Y-41124000D02*
X165106000Y-41124000D01*
X165106000Y-41124000D02*
X165106000Y-40374000D01*
X164756000Y-40374000D02*
X164756000Y-40874000D01*
X164756000Y-35374000D02*
X165106000Y-35374000D01*
X169405845Y-31874353D02*
G75*
G03*
X169406000Y-33374000I1700155J-749647D01*
G01*
X169405845Y-35374353D02*
G75*
G03*
X169406000Y-36874000I1700155J-749647D01*
G01*
X169405845Y-38874353D02*
G75*
G03*
X169406000Y-40374000I1700155J-749647D01*
G01*
%TO.C,J1*%
X159935700Y-42161300D02*
X159935700Y-30041300D01*
X154425700Y-38851300D02*
X154775700Y-38851300D01*
X159075700Y-31101300D02*
X159075700Y-31851300D01*
X154775700Y-33351300D02*
X154425700Y-33351300D01*
X159075700Y-36851300D02*
X159075700Y-37601300D01*
X153425700Y-34601300D02*
X154425700Y-34851300D01*
X154425700Y-31351300D02*
X154425700Y-31851300D01*
X159075700Y-33351300D02*
X159075700Y-34101300D01*
X154775700Y-31101300D02*
X159075700Y-31101300D01*
X154775700Y-36851300D02*
X154425700Y-36851300D01*
X154775700Y-38101300D02*
X159075700Y-38101300D01*
X154775700Y-40351300D02*
X154425700Y-40351300D01*
X153425700Y-37601300D02*
X153425700Y-34601300D01*
X152075700Y-42551300D02*
X152075700Y-40551300D01*
X159075700Y-38101300D02*
X159075700Y-38851300D01*
X154775700Y-35351300D02*
X154775700Y-34601300D01*
X154775700Y-34601300D02*
X159075700Y-34601300D01*
X154775700Y-34101300D02*
X154775700Y-33351300D01*
X154775700Y-37601300D02*
X154775700Y-36851300D01*
X159075700Y-37601300D02*
X154775700Y-37601300D01*
X153425700Y-38101300D02*
X154425700Y-38351300D01*
X154775700Y-31851300D02*
X154775700Y-31101300D01*
X154425700Y-33351300D02*
X154425700Y-33851300D01*
X154425700Y-33851300D02*
X153425700Y-34101300D01*
X153425700Y-41101300D02*
X153425700Y-38101300D01*
X152465700Y-42161300D02*
X159935700Y-42161300D01*
X152465700Y-30041300D02*
X152465700Y-42161300D01*
X154425700Y-38351300D02*
X154425700Y-38851300D01*
X159935700Y-30041300D02*
X152465700Y-30041300D01*
X154775700Y-38851300D02*
X154775700Y-38101300D01*
X153425700Y-31101300D02*
X154425700Y-31351300D01*
X159075700Y-40351300D02*
X159075700Y-41101300D01*
X159075700Y-34601300D02*
X159075700Y-35351300D01*
X154425700Y-37351300D02*
X153425700Y-37601300D01*
X159075700Y-34101300D02*
X154775700Y-34101300D01*
X153425700Y-34101300D02*
X153425700Y-31101300D01*
X154425700Y-36851300D02*
X154425700Y-37351300D01*
X154425700Y-31851300D02*
X154775700Y-31851300D01*
X154425700Y-40851300D02*
X153425700Y-41101300D01*
X154425700Y-34851300D02*
X154425700Y-35351300D01*
X153325700Y-42551300D02*
X152075700Y-42551300D01*
X159075700Y-41101300D02*
X154775700Y-41101300D01*
X154775700Y-41101300D02*
X154775700Y-40351300D01*
X154425700Y-40351300D02*
X154425700Y-40851300D01*
X154425700Y-35351300D02*
X154775700Y-35351300D01*
X159075545Y-31851653D02*
G75*
G03*
X159075700Y-33351300I1700155J-749647D01*
G01*
X159075545Y-35351653D02*
G75*
G03*
X159075700Y-36851300I1700155J-749647D01*
G01*
X159075545Y-38851653D02*
G75*
G03*
X159075700Y-40351300I1700155J-749647D01*
G01*
D13*
%TO.C,IC1*%
X192928200Y-41185000D02*
X192928200Y-49020000D01*
X173238200Y-42420000D02*
X173238200Y-49020000D01*
D12*
%TO.C,D20*%
X194215200Y-34465600D02*
X203955200Y-34465600D01*
X194215200Y-39905600D02*
X203955200Y-39905600D01*
X203955200Y-34465600D02*
X203955200Y-35345600D01*
X195880200Y-34465600D02*
X195880200Y-39905600D01*
X203955200Y-39905600D02*
X203955200Y-39025600D01*
X194215200Y-39025600D02*
X194215200Y-39905600D01*
X195760200Y-34465600D02*
X195760200Y-39905600D01*
X194215200Y-35345600D02*
X194215200Y-34465600D01*
X195640200Y-34465600D02*
X195640200Y-39905600D01*
%TO.C,J23*%
X196362000Y-43927200D02*
X206482000Y-43927200D01*
X196122000Y-50388200D02*
X196122000Y-51128200D01*
X196362000Y-48828200D02*
X206482000Y-48828200D01*
X196362000Y-40967200D02*
X196362000Y-50888200D01*
X196362000Y-40967200D02*
X206482000Y-40967200D01*
X202888000Y-47467200D02*
X202853000Y-47502200D01*
X202695000Y-47251200D02*
X202648000Y-47297200D01*
X196362000Y-50328200D02*
X206482000Y-50328200D01*
X205197000Y-45159200D02*
X205150000Y-45205200D01*
X196362000Y-50888200D02*
X206482000Y-50888200D01*
X204992000Y-44953200D02*
X204957000Y-44989200D01*
X206482000Y-40967200D02*
X206482000Y-50888200D01*
X196122000Y-51128200D02*
X196622000Y-51128200D01*
X198238000Y-47763200D02*
G75*
G03*
X198950805Y-47908453I683999J1535001D01*
G01*
X197387000Y-45544200D02*
G75*
G03*
X197386573Y-46911242I1534993J-684001D01*
G01*
X198922000Y-47908200D02*
G75*
G03*
X199605318Y-47762956I0J1680000D01*
G01*
X199606000Y-44693200D02*
G75*
G03*
X198238958Y-44692773I-684001J-1534993D01*
G01*
X200457001Y-46912200D02*
G75*
G03*
X200457427Y-45545158I-1535001J684000D01*
G01*
X205602000Y-46228200D02*
G75*
G03*
X205602000Y-46228200I-1680000J0D01*
G01*
%TO.C,JP1*%
X191572600Y-32470400D02*
X191572600Y-31140400D01*
X194172600Y-32470400D02*
X199312600Y-32470400D01*
X194172600Y-29810400D02*
X199312600Y-29810400D01*
X194172600Y-32470400D02*
X194172600Y-29810400D01*
X192902600Y-32470400D02*
X191572600Y-32470400D01*
X199312600Y-32470400D02*
X199312600Y-29810400D01*
%TO.C,R18*%
X159185236Y-46607400D02*
X159639364Y-46607400D01*
X159185236Y-45137400D02*
X159639364Y-45137400D01*
%TO.C,F18*%
X215126800Y-28679200D02*
X208186800Y-28679200D01*
X208186800Y-44879200D02*
X215126800Y-44879200D01*
X208186800Y-28679200D02*
X208186800Y-44879200D01*
X211656800Y-37529200D02*
X211656800Y-36029200D01*
X213656800Y-35179200D02*
X213656800Y-38379200D01*
X209656800Y-38379200D02*
X209656800Y-35179200D01*
X215126800Y-44879200D02*
X215126800Y-28679200D01*
%TO.C,U2*%
X172294800Y-29696400D02*
X190294800Y-29696400D01*
X190294800Y-29696400D02*
X190294800Y-39696400D01*
X190294800Y-39696400D02*
X172294800Y-39696400D01*
X172294800Y-39696400D02*
X172294800Y-29696400D01*
%TO.C,C1*%
X201651200Y-30097237D02*
X202715637Y-29032800D01*
X206171200Y-29032800D02*
X206171200Y-30232800D01*
X201651200Y-30097237D02*
X201651200Y-30232800D01*
X202715637Y-29032800D02*
X206171200Y-29032800D01*
X202715637Y-33552800D02*
X206171200Y-33552800D01*
X200911200Y-29732800D02*
X201411200Y-29732800D01*
X201651200Y-32488363D02*
X202715637Y-33552800D01*
X201651200Y-32488363D02*
X201651200Y-32352800D01*
X206171200Y-33552800D02*
X206171200Y-32352800D01*
X201161200Y-29482800D02*
X201161200Y-29982800D01*
%TO.C,J4*%
X175624800Y-35951400D02*
X172964800Y-35951400D01*
X175624800Y-37221400D02*
X175624800Y-38551400D01*
X175624800Y-35951400D02*
X175624800Y-30811400D01*
X175624800Y-30811400D02*
X172964800Y-30811400D01*
X172964800Y-35951400D02*
X172964800Y-30811400D01*
X175624800Y-38551400D02*
X174294800Y-38551400D01*
%TO.C,R17*%
X164415736Y-45239000D02*
X164869864Y-45239000D01*
X164415736Y-46709000D02*
X164869864Y-46709000D01*
%TD*%
%LPC*%
D14*
%TO.C,J2*%
X167156000Y-39624000D03*
D15*
X167156000Y-36124000D03*
X167156000Y-32624000D03*
%TD*%
D14*
%TO.C,J1*%
X156825700Y-39601300D03*
D15*
X156825700Y-36101300D03*
X156825700Y-32601300D03*
%TD*%
D16*
%TO.C,IC1*%
X190703200Y-41750000D03*
D17*
X188163200Y-41750000D03*
X185623200Y-41750000D03*
X183083200Y-41750000D03*
X180543200Y-41750000D03*
X178003200Y-41750000D03*
X175463200Y-41750000D03*
X175463200Y-49690000D03*
X178003200Y-49690000D03*
X180543200Y-49690000D03*
X183083200Y-49690000D03*
X185623200Y-49690000D03*
X188163200Y-49690000D03*
X190703200Y-49690000D03*
%TD*%
D18*
%TO.C,D20*%
X192735200Y-37185600D03*
D19*
X205435200Y-37185600D03*
%TD*%
D20*
%TO.C,J23*%
X198922000Y-46228200D03*
D21*
X203922000Y-46228200D03*
%TD*%
D22*
%TO.C,JP1*%
X192902600Y-31140400D03*
D23*
X195442600Y-31140400D03*
X197982600Y-31140400D03*
%TD*%
D24*
%TO.C,H4*%
X212095200Y-47960400D03*
%TD*%
%TO.C,H2*%
X212095200Y-24960400D03*
%TD*%
%TO.C,H1*%
X154095200Y-24960400D03*
%TD*%
D25*
%TO.C,R18*%
X158499800Y-45872400D03*
X160324800Y-45872400D03*
%TD*%
D26*
%TO.C,F18*%
X213356800Y-41739200D03*
X209956800Y-41739200D03*
X209956800Y-31819200D03*
X213356800Y-31819200D03*
%TD*%
D27*
%TO.C,U2*%
X174294800Y-32156400D03*
X174294800Y-34696400D03*
X174294800Y-37236400D03*
%TD*%
D28*
%TO.C,C1*%
X202111200Y-31292800D03*
X205711200Y-31292800D03*
%TD*%
D24*
%TO.C,H3*%
X154095200Y-47960400D03*
%TD*%
D22*
%TO.C,J4*%
X174294800Y-37221400D03*
D23*
X174294800Y-34681400D03*
X174294800Y-32141400D03*
%TD*%
D25*
%TO.C,R17*%
X163730300Y-45974000D03*
X165555300Y-45974000D03*
%TD*%
D22*
%TO.C,J3*%
X159312000Y-26314400D03*
D23*
X159312000Y-23774400D03*
X161852000Y-26314400D03*
X161852000Y-23774400D03*
X164392000Y-26314400D03*
X164392000Y-23774400D03*
X166932000Y-26314400D03*
X166932000Y-23774400D03*
X169472000Y-26314400D03*
X169472000Y-23774400D03*
X172012000Y-26314400D03*
X172012000Y-23774400D03*
X174552000Y-26314400D03*
X174552000Y-23774400D03*
X177092000Y-26314400D03*
X177092000Y-23774400D03*
X179632000Y-26314400D03*
X179632000Y-23774400D03*
X182172000Y-26314400D03*
X182172000Y-23774400D03*
X184712000Y-26314400D03*
X184712000Y-23774400D03*
X187252000Y-26314400D03*
X187252000Y-23774400D03*
X189792000Y-26314400D03*
X189792000Y-23774400D03*
X192332000Y-26314400D03*
X192332000Y-23774400D03*
X194872000Y-26314400D03*
X194872000Y-23774400D03*
X197412000Y-26314400D03*
X197412000Y-23774400D03*
X199952000Y-26314400D03*
X199952000Y-23774400D03*
X202492000Y-26314400D03*
X202492000Y-23774400D03*
X205032000Y-26314400D03*
X205032000Y-23774400D03*
X207572000Y-26314400D03*
X207572000Y-23774400D03*
%TD*%
M02*
