%TF.GenerationSoftware,KiCad,Pcbnew,(6.0.4)*%
%TF.CreationDate,2022-04-01T13:13:12+01:00*%
%TF.ProjectId,Basic_2ch_Hat,42617369-635f-4326-9368-5f4861742e6b,rev?*%
%TF.SameCoordinates,Original*%
%TF.FileFunction,Copper,L1,Top*%
%TF.FilePolarity,Positive*%
%FSLAX46Y46*%
G04 Gerber Fmt 4.6, Leading zero omitted, Abs format (unit mm)*
G04 Created by KiCad (PCBNEW (6.0.4)) date 2022-04-01 13:13:12*
%MOMM*%
%LPD*%
G01*
G04 APERTURE LIST*
G04 Aperture macros list*
%AMRoundRect*
0 Rectangle with rounded corners*
0 $1 Rounding radius*
0 $2 $3 $4 $5 $6 $7 $8 $9 X,Y pos of 4 corners*
0 Add a 4 corners polygon primitive as box body*
4,1,4,$2,$3,$4,$5,$6,$7,$8,$9,$2,$3,0*
0 Add four circle primitives for the rounded corners*
1,1,$1+$1,$2,$3*
1,1,$1+$1,$4,$5*
1,1,$1+$1,$6,$7*
1,1,$1+$1,$8,$9*
0 Add four rect primitives between the rounded corners*
20,1,$1+$1,$2,$3,$4,$5,0*
20,1,$1+$1,$4,$5,$6,$7,0*
20,1,$1+$1,$6,$7,$8,$9,0*
20,1,$1+$1,$8,$9,$2,$3,0*%
G04 Aperture macros list end*
%TA.AperFunction,ComponentPad*%
%ADD10RoundRect,0.250000X1.550000X-0.650000X1.550000X0.650000X-1.550000X0.650000X-1.550000X-0.650000X0*%
%TD*%
%TA.AperFunction,ComponentPad*%
%ADD11O,3.600000X1.800000*%
%TD*%
%TA.AperFunction,ComponentPad*%
%ADD12R,1.130000X1.130000*%
%TD*%
%TA.AperFunction,ComponentPad*%
%ADD13C,1.130000*%
%TD*%
%TA.AperFunction,ComponentPad*%
%ADD14R,3.200000X3.200000*%
%TD*%
%TA.AperFunction,ComponentPad*%
%ADD15O,3.200000X3.200000*%
%TD*%
%TA.AperFunction,ComponentPad*%
%ADD16R,2.600000X2.600000*%
%TD*%
%TA.AperFunction,ComponentPad*%
%ADD17C,2.600000*%
%TD*%
%TA.AperFunction,ComponentPad*%
%ADD18R,1.700000X1.700000*%
%TD*%
%TA.AperFunction,ComponentPad*%
%ADD19O,1.700000X1.700000*%
%TD*%
%TA.AperFunction,SMDPad,CuDef*%
%ADD20RoundRect,0.250000X-0.262500X-0.450000X0.262500X-0.450000X0.262500X0.450000X-0.262500X0.450000X0*%
%TD*%
%TA.AperFunction,ComponentPad*%
%ADD21C,2.780000*%
%TD*%
%TA.AperFunction,ComponentPad*%
%ADD22R,1.524000X1.524000*%
%TD*%
%TA.AperFunction,SMDPad,CuDef*%
%ADD23RoundRect,0.250000X-1.050000X-0.550000X1.050000X-0.550000X1.050000X0.550000X-1.050000X0.550000X0*%
%TD*%
G04 APERTURE END LIST*
D10*
%TO.P,J2,1,1*%
%TO.N,GND*%
X167156000Y-39624000D03*
D11*
%TO.P,J2,2,2*%
%TO.N,Net-(J2-Pad2)*%
X167156000Y-36124000D03*
%TO.P,J2,3,3*%
%TO.N,VIN1*%
X167156000Y-32624000D03*
%TD*%
D10*
%TO.P,J1,1,1*%
%TO.N,GND*%
X156825700Y-39601300D03*
D11*
%TO.P,J1,2,2*%
%TO.N,Net-(J1-Pad2)*%
X156825700Y-36101300D03*
%TO.P,J1,3,3*%
%TO.N,VIN1*%
X156825700Y-32601300D03*
%TD*%
D12*
%TO.P,IC1,1,1OE*%
%TO.N,GND*%
X190703200Y-41750000D03*
D13*
%TO.P,IC1,2,1A*%
%TO.N,DATA1*%
X188163200Y-41750000D03*
%TO.P,IC1,3,1Y*%
%TO.N,Net-(IC1-Pad3)*%
X185623200Y-41750000D03*
%TO.P,IC1,4,2OE*%
%TO.N,GND*%
X183083200Y-41750000D03*
%TO.P,IC1,5,2A*%
%TO.N,DATA2*%
X180543200Y-41750000D03*
%TO.P,IC1,6,2Y*%
%TO.N,Net-(IC1-Pad6)*%
X178003200Y-41750000D03*
%TO.P,IC1,7,GND*%
%TO.N,GND*%
X175463200Y-41750000D03*
%TO.P,IC1,8,3Y*%
%TO.N,unconnected-(IC1-Pad8)*%
X175463200Y-49690000D03*
%TO.P,IC1,9,3A*%
%TO.N,unconnected-(IC1-Pad9)*%
X178003200Y-49690000D03*
%TO.P,IC1,10,3OE*%
%TO.N,GND*%
X180543200Y-49690000D03*
%TO.P,IC1,11,4Y*%
%TO.N,unconnected-(IC1-Pad11)*%
X183083200Y-49690000D03*
%TO.P,IC1,12,4A*%
%TO.N,unconnected-(IC1-Pad12)*%
X185623200Y-49690000D03*
%TO.P,IC1,13,4OE*%
%TO.N,GND*%
X188163200Y-49690000D03*
%TO.P,IC1,14,VCC*%
%TO.N,+5V*%
X190703200Y-49690000D03*
%TD*%
D14*
%TO.P,D20,1,K*%
%TO.N,VIN1*%
X192735200Y-37185600D03*
D15*
%TO.P,D20,2,A*%
%TO.N,GND*%
X205435200Y-37185600D03*
%TD*%
D16*
%TO.P,J23,1,Pin_1*%
%TO.N,GND*%
X198922000Y-46228200D03*
D17*
%TO.P,J23,2,Pin_2*%
%TO.N,V1*%
X203922000Y-46228200D03*
%TD*%
D18*
%TO.P,JP1,1,A*%
%TO.N,V5*%
X192902600Y-31140400D03*
D19*
%TO.P,JP1,2,C*%
%TO.N,VIN1*%
X195442600Y-31140400D03*
%TO.P,JP1,3,B*%
%TO.N,V12*%
X197982600Y-31140400D03*
%TD*%
D20*
%TO.P,R18,1*%
%TO.N,Net-(J1-Pad2)*%
X158499800Y-45872400D03*
%TO.P,R18,2*%
%TO.N,Net-(IC1-Pad3)*%
X160324800Y-45872400D03*
%TD*%
D21*
%TO.P,F18,1*%
%TO.N,V1*%
X213356800Y-41739200D03*
X209956800Y-41739200D03*
%TO.P,F18,2*%
%TO.N,VIN1*%
X209956800Y-31819200D03*
X213356800Y-31819200D03*
%TD*%
D22*
%TO.P,U2,1,IN+*%
%TO.N,unconnected-(U2-Pad1)*%
X174294800Y-32156400D03*
%TO.P,U2,2,GND*%
%TO.N,unconnected-(U2-Pad2)*%
X174294800Y-34696400D03*
%TO.P,U2,3,OUT+*%
%TO.N,unconnected-(U2-Pad3)*%
X174294800Y-37236400D03*
%TD*%
D23*
%TO.P,C1,1*%
%TO.N,+5V*%
X202111200Y-31292800D03*
%TO.P,C1,2*%
%TO.N,GND*%
X205711200Y-31292800D03*
%TD*%
D18*
%TO.P,J4,1,Pin_1*%
%TO.N,V12*%
X174294800Y-37221400D03*
D19*
%TO.P,J4,2,Pin_2*%
%TO.N,GND*%
X174294800Y-34681400D03*
%TO.P,J4,3,Pin_3*%
%TO.N,V5*%
X174294800Y-32141400D03*
%TD*%
D20*
%TO.P,R17,1*%
%TO.N,Net-(J2-Pad2)*%
X163730300Y-45974000D03*
%TO.P,R17,2*%
%TO.N,Net-(IC1-Pad6)*%
X165555300Y-45974000D03*
%TD*%
D18*
%TO.P,J3,1,Pin_1*%
%TO.N,+3V3*%
X159312000Y-26314400D03*
D19*
%TO.P,J3,2,Pin_2*%
%TO.N,V5*%
X159312000Y-23774400D03*
%TO.P,J3,3,Pin_3*%
%TO.N,unconnected-(J3-Pad3)*%
X161852000Y-26314400D03*
%TO.P,J3,4,Pin_4*%
%TO.N,V5*%
X161852000Y-23774400D03*
%TO.P,J3,5,Pin_5*%
%TO.N,unconnected-(J3-Pad5)*%
X164392000Y-26314400D03*
%TO.P,J3,6,Pin_6*%
%TO.N,GND*%
X164392000Y-23774400D03*
%TO.P,J3,7,Pin_7*%
%TO.N,unconnected-(J3-Pad7)*%
X166932000Y-26314400D03*
%TO.P,J3,8,Pin_8*%
%TO.N,unconnected-(J3-Pad8)*%
X166932000Y-23774400D03*
%TO.P,J3,9,Pin_9*%
%TO.N,GND*%
X169472000Y-26314400D03*
%TO.P,J3,10,Pin_10*%
%TO.N,unconnected-(J3-Pad10)*%
X169472000Y-23774400D03*
%TO.P,J3,11,Pin_11*%
%TO.N,unconnected-(J3-Pad11)*%
X172012000Y-26314400D03*
%TO.P,J3,12,Pin_12*%
%TO.N,unconnected-(J3-Pad12)*%
X172012000Y-23774400D03*
%TO.P,J3,13,Pin_13*%
%TO.N,unconnected-(J3-Pad13)*%
X174552000Y-26314400D03*
%TO.P,J3,14,Pin_14*%
%TO.N,GND*%
X174552000Y-23774400D03*
%TO.P,J3,15,Pin_15*%
%TO.N,unconnected-(J3-Pad15)*%
X177092000Y-26314400D03*
%TO.P,J3,16,Pin_16*%
%TO.N,unconnected-(J3-Pad16)*%
X177092000Y-23774400D03*
%TO.P,J3,17,Pin_17*%
%TO.N,+3V3*%
X179632000Y-26314400D03*
%TO.P,J3,18,Pin_18*%
%TO.N,unconnected-(J3-Pad18)*%
X179632000Y-23774400D03*
%TO.P,J3,19,Pin_19*%
%TO.N,unconnected-(J3-Pad19)*%
X182172000Y-26314400D03*
%TO.P,J3,20,Pin_20*%
%TO.N,GND*%
X182172000Y-23774400D03*
%TO.P,J3,21,Pin_21*%
%TO.N,unconnected-(J3-Pad21)*%
X184712000Y-26314400D03*
%TO.P,J3,22,Pin_22*%
%TO.N,unconnected-(J3-Pad22)*%
X184712000Y-23774400D03*
%TO.P,J3,23,Pin_23*%
%TO.N,unconnected-(J3-Pad23)*%
X187252000Y-26314400D03*
%TO.P,J3,24,Pin_24*%
%TO.N,unconnected-(J3-Pad24)*%
X187252000Y-23774400D03*
%TO.P,J3,25,Pin_25*%
%TO.N,GND*%
X189792000Y-26314400D03*
%TO.P,J3,26,Pin_26*%
%TO.N,unconnected-(J3-Pad26)*%
X189792000Y-23774400D03*
%TO.P,J3,27,Pin_27*%
%TO.N,unconnected-(J3-Pad27)*%
X192332000Y-26314400D03*
%TO.P,J3,28,Pin_28*%
%TO.N,unconnected-(J3-Pad28)*%
X192332000Y-23774400D03*
%TO.P,J3,29,Pin_29*%
%TO.N,unconnected-(J3-Pad29)*%
X194872000Y-26314400D03*
%TO.P,J3,30,Pin_30*%
%TO.N,GND*%
X194872000Y-23774400D03*
%TO.P,J3,31,Pin_31*%
%TO.N,unconnected-(J3-Pad31)*%
X197412000Y-26314400D03*
%TO.P,J3,32,Pin_32*%
%TO.N,DATA1*%
X197412000Y-23774400D03*
%TO.P,J3,33,Pin_33*%
%TO.N,DATA2*%
X199952000Y-26314400D03*
%TO.P,J3,34,Pin_34*%
%TO.N,GND*%
X199952000Y-23774400D03*
%TO.P,J3,35,Pin_35*%
%TO.N,unconnected-(J3-Pad35)*%
X202492000Y-26314400D03*
%TO.P,J3,36,Pin_36*%
%TO.N,unconnected-(J3-Pad36)*%
X202492000Y-23774400D03*
%TO.P,J3,37,Pin_37*%
%TO.N,unconnected-(J3-Pad37)*%
X205032000Y-26314400D03*
%TO.P,J3,38,Pin_38*%
%TO.N,unconnected-(J3-Pad38)*%
X205032000Y-23774400D03*
%TO.P,J3,39,Pin_39*%
%TO.N,GND*%
X207572000Y-26314400D03*
%TO.P,J3,40,Pin_40*%
%TO.N,unconnected-(J3-Pad40)*%
X207572000Y-23774400D03*
%TD*%
M02*
