M48
; DRILL file {KiCad (6.0.4)} date Fri Apr  1 13:13:48 2022
; FORMAT={-:-/ absolute / metric / decimal}
; #@! TF.CreationDate,2022-04-01T13:13:48+01:00
; #@! TF.GenerationSoftware,Kicad,Pcbnew,(6.0.4)
; #@! TF.FileFunction,Plated,1,2,PTH
FMAT,2
METRIC
; #@! TA.AperFunction,Plated,PTH,ComponentDrill
T1C0.730
; #@! TA.AperFunction,Plated,PTH,ComponentDrill
T2C0.762
; #@! TA.AperFunction,Plated,PTH,ComponentDrill
T3C1.000
; #@! TA.AperFunction,Plated,PTH,ComponentDrill
T4C1.200
; #@! TA.AperFunction,Plated,PTH,ComponentDrill
T5C1.300
; #@! TA.AperFunction,Plated,PTH,ComponentDrill
T6C1.600
; #@! TA.AperFunction,Plated,PTH,ComponentDrill
T7C1.780
%
G90
G05
T1
X175.463Y-41.75
X175.463Y-49.69
X178.003Y-41.75
X178.003Y-49.69
X180.543Y-41.75
X180.543Y-49.69
X183.083Y-41.75
X183.083Y-49.69
X185.623Y-41.75
X185.623Y-49.69
X188.163Y-41.75
X188.163Y-49.69
X190.703Y-41.75
X190.703Y-49.69
T2
X174.295Y-32.156
X174.295Y-34.696
X174.295Y-37.236
T3
X159.312Y-23.774
X159.312Y-26.314
X161.852Y-23.774
X161.852Y-26.314
X164.392Y-23.774
X164.392Y-26.314
X166.932Y-23.774
X166.932Y-26.314
X169.472Y-23.774
X169.472Y-26.314
X172.012Y-23.774
X172.012Y-26.314
X174.295Y-32.141
X174.295Y-34.681
X174.295Y-37.221
X174.552Y-23.774
X174.552Y-26.314
X177.092Y-23.774
X177.092Y-26.314
X179.632Y-23.774
X179.632Y-26.314
X182.172Y-23.774
X182.172Y-26.314
X184.712Y-23.774
X184.712Y-26.314
X187.252Y-23.774
X187.252Y-26.314
X189.792Y-23.774
X189.792Y-26.314
X192.332Y-23.774
X192.332Y-26.314
X192.903Y-31.14
X194.872Y-23.774
X194.872Y-26.314
X195.443Y-31.14
X197.412Y-23.774
X197.412Y-26.314
X197.983Y-31.14
X199.952Y-23.774
X199.952Y-26.314
X202.492Y-23.774
X202.492Y-26.314
X205.032Y-23.774
X205.032Y-26.314
X207.572Y-23.774
X207.572Y-26.314
T4
X156.826Y-32.601
X156.826Y-36.101
X156.826Y-39.601
X167.156Y-32.624
X167.156Y-36.124
X167.156Y-39.624
T5
X198.922Y-46.228
X203.922Y-46.228
T6
X192.735Y-37.186
X205.435Y-37.186
T7
X209.957Y-31.819
X209.957Y-41.739
X213.357Y-31.819
X213.357Y-41.739
T0
M30
